PathFileType	4	(X/Y/Z)	SUBJ63_2_walk_RCNL2025.trc
DataRate	CameraRate	NumFrames	NumMarkers	Units	OrigDataRate	OrigDataStartFrame	OrigNumFrames
100	100	4	25	mm	100	34	270
Frame#	Time	R_Shoulder			L_Shoulder			C7			J_Notch			R_Elbow			L_Elbow			R_Wrist			L_Wrist			R_Asis			L_Asis			Sacral			Thoracic			Sternum			R_Thigh_Lateral			R_Knee_Lateral			R_Shank_Lateral			R_Ankle_Lateral			R_Heel			R_Toe			L_Thigh_Lateral			L_Knee_Lateral			L_Shank_Lateral			L_Ankle_Lateral			L_Heel			L_Toe		
		X1	Y1	Z1	X2	Y2	Z2	X3	Y3	Z3	X4	Y4	Z4	X5	Y5	Z5	X6	Y6	Z6	X7	Y7	Z7	X8	Y8	Z8	X9	Y9	Z9	X10	Y10	Z10	X11	Y11	Z11	X12	Y12	Z12	X13	Y13	Z13	X14	Y14	Z14	X15	Y15	Z15	X16	Y16	Z16	X17	Y17	Z17	X18	Y18	Z18	X19	Y19	Z19	X20	Y20	Z20	X21	Y21	Z21	X22	Y22	Z22	X23	Y23	Z23	X24	Y24	Z24	X25	Y25	Z25
34	0.33000000	-1108.914917	1299.673218	77.171463	-1084.339844	1284.274536	-254.857315	-1168.263794	1358.682983	-104.215164	-1056.704712	1245.608521	-88.262199	-1162.685303	1027.902100	192.835449	-1165.188599	993.816101	-344.070557	-1089.552979	815.951538	245.693748	-1110.740601	781.717133	-397.342896	-1078.484863	845.650269	50.335217	-1023.822510	846.097839	-196.870667	-1268.501343	852.115540	-120.951180	-1259.699951	1178.782959	-95.653725	-1017.781921	1066.872437	-71.304550	-1072.416138	511.889008	116.322212	-1056.775391	460.730774	72.664177	-1166.609863	336.600861	105.705467	-1288.899292	170.600906	16.892082	-1315.530640	194.408737	-40.931171	-1212.048706	88.113876	28.303329	-1064.988892	463.318451	-275.094025	-1078.662476	440.914551	-206.875992	-1096.763672	248.385330	-235.579529	-1141.890381	59.623306	-156.727997	-1191.899658	51.237122	-102.749695	-1027.943970	43.950974	-147.425262
35	0.34000000	-1096.899170	1300.991089	77.844566	-1069.320923	1286.658936	-254.259506	-1154.260376	1359.978027	-103.819435	-1042.865967	1247.266846	-87.157715	-1151.782837	1028.541138	192.186462	-1145.482300	995.013550	-344.450958	-1079.631714	816.285614	245.257866	-1082.521057	783.695984	-392.835724	-1063.822144	848.401184	49.602390	-1010.176453	846.812744	-197.363724	-1254.201172	853.821655	-121.074303	-1245.254639	1179.680542	-96.646599	-1004.055481	1069.200806	-70.269844	-1050.751465	515.078918	114.546684	-1033.502197	464.368988	70.750687	-1137.013794	334.392822	104.766266	-1249.467773	160.559235	17.013000	-1277.779785	181.854401	-40.941025	-1166.528809	83.960869	28.513687	-1062.043701	463.243530	-275.175110	-1075.956909	440.874603	-206.773331	-1096.242188	248.582031	-235.665573	-1141.954712	59.927166	-156.845749	-1191.143188	51.129700	-101.641563	-1027.802979	43.921677	-147.549850
36	0.35000000	-1085.008057	1301.853760	78.493904	-1054.403442	1288.696899	-253.715805	-1140.315308	1360.816772	-103.427162	-1029.082031	1248.534912	-86.058296	-1140.792358	1028.738281	191.636551	-1125.650391	995.827332	-344.749329	-1069.567200	816.255432	245.051155	-1054.155334	785.736206	-388.170761	-1048.893677	850.692261	48.685165	-996.643799	847.029175	-197.918961	-1239.904419	854.979370	-120.797447	-1230.814575	1180.115723	-97.732010	-990.244202	1071.217651	-69.300049	-1029.453735	517.931152	112.848808	-1011.037537	467.407959	68.806801	-1107.520264	331.077667	103.789757	-1209.040527	149.999847	17.009825	-1238.755249	168.551575	-41.150768	-1120.426392	79.858513	29.068129	-1058.958252	463.222504	-275.281464	-1073.137085	440.818939	-206.706497	-1095.586182	248.798965	-235.746399	-1141.983765	60.288406	-156.939484	-1190.619141	51.429428	-100.972527	-1027.622192	43.881672	-147.696396
37	0.36000000	-1073.178955	1302.221558	79.110603	-1039.566040	1290.325806	-253.240585	-1126.408447	1361.175415	-103.061897	-1015.330811	1249.361694	-84.979752	-1129.674316	1028.473755	191.191559	-1105.683105	996.219360	-344.963165	-1059.353943	815.833923	245.071075	-1025.717285	787.814545	-383.404602	-1033.668701	852.449768	47.626453	-983.203918	846.694397	-198.534119	-1225.612793	855.589966	-120.162560	-1216.392212	1180.094116	-98.897095	-976.328674	1072.823853	-68.397964	-1008.508057	520.378845	111.263657	-989.385193	469.758606	66.873108	-1078.083618	326.758575	102.815971	-1167.638062	139.171265	16.914557	-1198.437256	154.843384	-41.523685	-1073.879639	76.005524	29.985682	-1055.677734	463.239319	-275.433350	-1070.127075	440.746674	-206.695404	-1094.729492	249.020325	-235.818695	-1141.935547	60.702091	-156.960312	-1190.343994	52.168949	-100.766487	-1027.397705	43.823521	-147.852570
